# xmcd
#
# Track frame offsets:
# 150
# 12705
# 25002
# 36927
# 46290
# 56752
# 69949
# 82816
# 91548
# 101783
# 114711
# 126286
# 136485
# 149716
# 161165
# 172971
# 184041
#
# Disc length: 2619 seconds
#
# Revision: 0
# Processed by: cddbd v1.4PL0 Copyright (c) Steve Scherf et al.
# Submitted via: Axialis_AX_CDPlayer 2.6
#
DISCID=ea0a3911
DTITLE=Harold Burrage - Harold Burrage,  Messed Up
DYEAR=1900
DGENRE=
TTITLE0=You Eat Too Much
TTITLE1=One More Dance
TTITLE2=Hot Dog And A Bottle Of Pop
TTITLE3=Messed Up
TTITLE4=I Don't care Who Knows (Master)
TTITLE5=Satisfied (Master)
TTITLE6=Stop For The Red Light ( Overdubbed Master)
TTITLE7=A Heart (Filled With Pain)
TTITLE8=She Knocks Me Out
TTITLE9=Betty Jean
TTITLE10=I Cry For You (Master)
TTITLE11=She Knocks Me Out (Alternate Take)
TTITLE12=Satisfied (Alternate Take)
TTITLE13=I Cry For You (Alternate Take)
TTITLE14=Stop For The red Light (Undubbed Master)
TTITLE15=I Don't care Who Knows (Alternate Take 1)
TTITLE16=I Don't care Who Knows (Alternate Take 2)
EXTD=
EXTT0=
EXTT1=
EXTT2=
EXTT3=
EXTT4=
EXTT5=
EXTT6=
EXTT7=
EXTT8=
EXTT9=
EXTT10=
EXTT11=
EXTT12=
EXTT13=
EXTT14=
EXTT15=
EXTT16=
PLAYORDER=
